<svg xmlns="http://www.w3.org/2000/svg" viewBox="0 0 16 16" width="32" height="32">
  <!-- Clean Blue/Teal Theme color accent (Adjust hex to match your main css) -->
  <g fill="#0284c7">
    <!-- Fluid Droplet base vector path -->
    <path d="M8 16a6 6 0 0 0 6-6c0-1.655-1.122-2.904-2.432-4.362L8 1.82 4.432 5.638C3.122 7.096 2 8.345 2 10a6 6 0 0 0 6 6zM8 3.32l2.613 2.825C11.833 7.42 13 8.528 13 10a5 5 0 0 1-10 0c0-1.472 1.167-2.58 2.387-3.855L8 3.32z"/>
    <!-- Wireless Signal Waves overlay inside -->
    <path d="M8 6.5a1.5 1.5 0 1 1 0 3 1.5 1.5 0 0 1 0-3zm-2.5 1.5a2.5 2.5 0 0 0 5 0h1a3.5 3.5 0 0 1-7 0h1z"/>
  </g>
</svg>
